<mxfile host="65bd71144e">
    <diagram id="BchvI7WIYb1rJNrYavdt" name="第1頁">
        <mxGraphModel dx="1157" dy="2053" grid="1" gridSize="10" guides="1" tooltips="1" connect="1" arrows="1" fold="1" page="1" pageScale="1" pageWidth="827" pageHeight="1169" math="0" shadow="0">
            <root>
                <mxCell id="0"/>
                <mxCell id="1" parent="0"/>
                <mxCell id="19" value="" style="group" vertex="1" connectable="0" parent="1">
                    <mxGeometry x="380" y="-1120" width="120.01" height="510" as="geometry"/>
                </mxCell>
                <mxCell id="4" value="" style="rounded=0;whiteSpace=wrap;html=1;rotation=90;" vertex="1" parent="19">
                    <mxGeometry x="-211.72141981486124" y="198.6886740331492" width="543.4528396297225" height="112.62265193370166" as="geometry"/>
                </mxCell>
                <mxCell id="5" value="&lt;span style=&quot;color: rgb(0, 113, 208); font-family: Arial, Helvetica, &amp;quot;Microsoft JhengHei&amp;quot;, sans-serif;&quot;&gt;&lt;font style=&quot;font-size: 14px;&quot;&gt;Deliver letters, parcels&lt;/font&gt;&lt;/span&gt;" style="ellipse;whiteSpace=wrap;html=1;align=center;" vertex="1" parent="19">
                    <mxGeometry x="8.962468101075794" y="6.616850828729297" width="105.08756567425573" height="65.74585635359117" as="geometry"/>
                </mxCell>
                <mxCell id="6" value="&lt;span style=&quot;color: rgb(0, 113, 208); font-family: Arial, Helvetica, &amp;quot;Microsoft JhengHei&amp;quot;, sans-serif; text-align: start; font-size: 13px;&quot;&gt;The APP is bound to the mobile phone&lt;/span&gt;" style="ellipse;whiteSpace=wrap;html=1;align=center;" vertex="1" parent="19">
                    <mxGeometry x="8.962468101075794" y="81.75497237569063" width="105.08756567425573" height="65.74585635359117" as="geometry"/>
                </mxCell>
                <mxCell id="7" value="&lt;span style=&quot;color: rgb(0, 113, 208); font-family: Arial, Helvetica, &amp;quot;Microsoft JhengHei&amp;quot;, sans-serif; text-align: start; font-size: 13px;&quot;&gt;The APP is bound to the mobile phone&lt;/span&gt;" style="ellipse;whiteSpace=wrap;html=1;align=center;" vertex="1" parent="19">
                    <mxGeometry x="8.962468101075794" y="156.89309392265196" width="105.08756567425573" height="65.74585635359117" as="geometry"/>
                </mxCell>
                <mxCell id="8" value="&lt;span style=&quot;color: rgb(0, 113, 208); font-family: Arial, Helvetica, &amp;quot;Microsoft JhengHei&amp;quot;, sans-serif; font-size: 14px; text-align: start;&quot;&gt;Community, announcement discussion&lt;/span&gt;" style="ellipse;whiteSpace=wrap;html=1;align=center;" vertex="1" parent="19">
                    <mxGeometry x="8.962468101075794" y="232.03121546961327" width="105.08756567425573" height="65.74585635359117" as="geometry"/>
                </mxCell>
                <mxCell id="16" value="&lt;span style=&quot;color: rgb(0, 113, 208); font-family: Arial, Helvetica, &amp;quot;Microsoft JhengHei&amp;quot;, sans-serif; font-size: 13px; text-align: start;&quot;&gt;Edit the post announcement&lt;/span&gt;" style="ellipse;whiteSpace=wrap;html=1;align=center;" vertex="1" parent="19">
                    <mxGeometry x="8.962468101075794" y="311.31132596685086" width="105.08756567425573" height="65.74585635359117" as="geometry"/>
                </mxCell>
                <mxCell id="18" value="&lt;span style=&quot;color: rgb(0, 113, 208); font-family: Arial, Helvetica, &amp;quot;Microsoft JhengHei&amp;quot;, sans-serif; font-size: 13px; text-align: start;&quot;&gt;See how residents react&lt;/span&gt;" style="ellipse;whiteSpace=wrap;html=1;align=center;" vertex="1" parent="19">
                    <mxGeometry x="7.461217162872141" y="394.51740331491715" width="105.08756567425573" height="65.74585635359117" as="geometry"/>
                </mxCell>
                <mxCell id="21" value="&lt;br&gt;&lt;span style=&quot;color: rgb(0, 113, 208); font-family: Arial, Helvetica, &amp;quot;Microsoft JhengHei&amp;quot;, sans-serif; font-size: 20px; font-style: normal; font-variant-ligatures: normal; font-variant-caps: normal; font-weight: 400; letter-spacing: normal; orphans: 2; text-align: start; text-indent: 0px; text-transform: none; widows: 2; word-spacing: 0px; -webkit-text-stroke-width: 0px; text-decoration-thickness: initial; text-decoration-style: initial; text-decoration-color: initial; float: none; display: inline !important;&quot;&gt;Guard&lt;/span&gt;&lt;br&gt;" style="swimlane;whiteSpace=wrap;html=1;fontSize=13;startSize=40;" vertex="1" parent="1">
                    <mxGeometry x="140" y="-540" width="140" height="120" as="geometry"/>
                </mxCell>
                <mxCell id="27" value="" style="line;strokeWidth=2;html=1;labelBackgroundColor=#18141D;fontSize=13;" vertex="1" parent="21">
                    <mxGeometry y="70" width="140" height="10" as="geometry"/>
                </mxCell>
                <mxCell id="28" value="guard_ id" style="text;html=1;align=center;verticalAlign=middle;resizable=0;points=[];autosize=1;strokeColor=none;fillColor=none;fontSize=13;" vertex="1" parent="21">
                    <mxGeometry x="30" y="45" width="80" height="30" as="geometry"/>
                </mxCell>
                <mxCell id="31" value="name" style="text;html=1;align=center;verticalAlign=middle;resizable=0;points=[];autosize=1;strokeColor=none;fillColor=none;fontSize=13;" vertex="1" parent="21">
                    <mxGeometry x="40" y="90" width="60" height="30" as="geometry"/>
                </mxCell>
                <mxCell id="23" value="&lt;span style=&quot;color: rgb(0, 113, 208); font-family: Arial, Helvetica, &amp;quot;Microsoft JhengHei&amp;quot;, sans-serif; font-size: 20px; font-weight: 400; text-align: start;&quot;&gt;Household&lt;/span&gt;" style="swimlane;whiteSpace=wrap;html=1;fontSize=13;" vertex="1" parent="1">
                    <mxGeometry x="375" y="-350" width="130" height="100" as="geometry"/>
                </mxCell>
                <mxCell id="26" value="&lt;br&gt;&lt;span style=&quot;color: rgb(0, 113, 208); font-family: Arial, Helvetica, &amp;quot;Microsoft JhengHei&amp;quot;, sans-serif; font-size: 20px; font-weight: 400; text-align: start;&quot;&gt;Parcel&lt;/span&gt;" style="swimlane;whiteSpace=wrap;html=1;fontSize=13;startSize=40;" vertex="1" parent="1">
                    <mxGeometry x="375" y="-540" width="130" height="120" as="geometry"/>
                </mxCell>
            </root>
        </mxGraphModel>
    </diagram>
</mxfile>